<?xml version="1.0" standalone="no"?>
<!DOCTYPE svg PUBLIC "-//W3C//DTD SVG 20010904//EN"
 "http://www.w3.org/TR/2001/REC-SVG-20010904/DTD/svg10.dtd">
<svg version="1.0" xmlns="http://www.w3.org/2000/svg"
 width="300.000000pt" height="300.000000pt" viewBox="0 0 300.000000 300.000000"
 preserveAspectRatio="xMidYMid meet">
<metadata>
Created by potrace 1.10, written by Peter Selinger 2001-2011
</metadata>
<g transform="translate(0.000000,300.000000) scale(0.100000,-0.100000)"
fill="#000000" stroke="none">
<path d="M846 2534 c-13 -12 -16 -38 -16 -120 l0 -104 -47 0 c-55 0 -108 -24
-135 -61 -11 -14 -22 -51 -25 -82 l-6 -57 -88 0 c-110 0 -139 -10 -139 -48 0
-46 15 -52 127 -52 l103 0 0 -70 0 -70 -96 0 c-109 0 -134 -9 -134 -48 0 -46
15 -52 127 -52 l103 0 0 -70 0 -70 -103 0 c-112 0 -127 -6 -127 -52 0 -39 25
-48 134 -48 l96 0 0 -68 0 -68 -87 2 c-113 3 -143 -7 -143 -51 0 -44 29 -55
140 -55 l90 0 0 -65 0 -65 -96 0 c-109 0 -134 -9 -134 -48 0 -46 15 -52 127
-52 l103 0 0 -70 0 -70 -96 0 c-111 0 -134 -9 -134 -50 0 -41 23 -50 134 -50
l96 0 0 -32 c0 -55 18 -103 51 -134 25 -24 41 -30 92 -34 l62 -5 3 -104 c3
-111 10 -131 48 -131 41 0 54 34 54 142 l0 98 65 0 65 0 0 -98 c0 -108 13
-142 54 -142 41 0 50 24 50 133 l1 102 68 3 67 3 0 -105 c0 -113 9 -136 54
-136 38 0 45 20 48 131 l3 104 68 3 67 3 0 -101 c0 -117 8 -140 50 -140 42 0
50 23 50 140 l0 101 68 -3 67 -3 3 -104 c3 -111 10 -131 48 -131 41 0 54 34
54 142 l0 98 65 0 65 0 0 -98 c0 -108 13 -142 54 -142 39 0 47 22 49 132 l2
103 60 5 c33 3 70 12 83 20 32 21 62 88 62 138 l0 42 103 0 c88 0 106 3 120
18 22 24 21 45 -1 65 -15 14 -40 17 -120 17 l-102 0 0 70 0 70 103 0 c88 0
106 3 120 18 22 24 21 38 -3 62 -17 17 -33 20 -120 20 l-100 0 0 65 0 65 89 0
c100 0 136 10 145 38 16 49 -22 71 -114 67 -36 -2 -77 -1 -92 2 -27 5 -28 7
-28 69 l0 64 98 0 c104 0 142 13 142 49 0 40 -31 51 -138 51 l-102 0 0 70 0
70 103 0 c88 0 106 3 120 18 23 25 21 48 -5 66 -17 12 -48 16 -120 16 l-98 0
0 70 0 70 104 0 c82 0 108 3 120 16 21 21 20 40 -4 64 -17 17 -33 20 -120 20
l-100 0 0 43 c0 90 -55 149 -148 157 l-57 5 -2 103 c-2 110 -10 132 -49 132
-41 0 -54 -34 -54 -142 l0 -98 -65 0 -65 0 0 98 c0 107 -13 142 -54 142 -40 0
-46 -18 -46 -132 l0 -108 -70 0 -70 0 0 103 c0 88 -3 106 -18 120 -24 22 -45
21 -65 -1 -14 -15 -17 -40 -17 -120 l0 -102 -70 0 -70 0 0 104 c0 111 -9 136
-50 136 -37 0 -50 -38 -50 -143 l0 -98 -67 3 -68 3 0 101 c-1 113 -11 137 -54
132 -38 -4 -51 -40 -51 -145 l0 -93 -65 0 -65 0 0 98 c0 72 -4 103 -16 120
-18 26 -46 28 -68 6z m434 -508 l0 -84 -141 -4 c-182 -4 -179 -1 -179 -169 l0
-119 -65 0 -65 0 0 230 0 230 225 0 225 0 0 -84z m310 6 l0 -77 -127 -127
-128 -127 -41 11 c-103 28 -195 -88 -148 -187 26 -55 67 -77 132 -72 44 3 59
9 85 36 30 29 32 36 32 101 l1 70 121 123 c67 67 127 135 132 150 6 16 11 62
11 103 l0 74 115 0 115 0 0 -170 0 -170 -85 0 c-100 0 -132 -11 -197 -69 -75
-67 -92 -96 -99 -174 -6 -67 -7 -70 -63 -126 l-56 -56 -280 -3 -280 -3 0 121
0 120 75 0 c67 0 79 3 100 25 24 23 25 30 25 145 l0 120 140 0 c181 0 180 -1
180 140 l0 100 120 0 120 0 0 -78z m520 -567 l0 -645 -75 0 -75 0 0 128 c0
126 -1 130 -29 168 -15 21 -38 48 -50 58 -18 16 -21 30 -21 87 0 66 1 69 30
84 85 44 94 177 16 229 -42 27 -106 30 -143 7 -91 -57 -94 -178 -7 -232 33
-20 34 -23 34 -84 0 -79 11 -108 60 -162 43 -46 42 -43 43 -223 l1 -55 -532
-3 -532 -2 0 75 0 75 139 0 c77 0 152 5 167 10 15 6 45 26 66 45 37 34 39 35
128 35 89 0 90 0 105 -29 25 -50 61 -71 120 -71 38 0 60 6 79 21 103 81 51
242 -79 242 -52 0 -89 -22 -117 -69 l-20 -34 -100 0 c-105 0 -123 -5 -176 -51
-33 -29 -33 -29 -172 -29 l-140 0 0 120 0 120 288 0 289 0 39 29 c90 66 124
119 124 195 l0 59 68 69 69 68 106 0 c153 0 147 -9 147 225 l0 185 75 0 75 0
0 -645z m-802 169 c32 -22 30 -76 -5 -103 -30 -24 -58 -20 -85 11 -24 27 -23
57 4 85 25 27 54 29 86 7z m560 -120 c15 -10 22 -25 22 -46 0 -42 -25 -68 -66
-68 -57 0 -85 69 -44 110 24 24 57 26 88 4z m-270 -374 c31 -29 29 -73 -4 -99
-15 -12 -32 -21 -39 -21 -7 0 -24 9 -39 21 -32 25 -34 64 -4 96 27 28 57 29
86 3z"/>
</g>
</svg>
